# xmcd
#
# Track frame offsets: 
#        202
#        15377
#        31040
#        50025
#        64212
#        87527
#        101150
#        113227
#        129617
#        148287
#        164742
#        185415
#        206292
#        218787
#
# Disc length: 3272 seconds
#
# Revision: 12
# Processed by: cddbd v1.5.2PL0 Copyright (c) Steve Scherf et al.
# Submitted via: ExactAudioCopyFreeDBPlugin 1.0
#
DISCID=d10cc60e
DTITLE=John Prine - The Missing Years
DYEAR=1991
DGENRE=Country
TTITLE0=Picture Show
TTITLE1=All the Best
TTITLE2=The Sins of Memphisto
TTITLE3=Everybody Wants to Feel Like You
TTITLE4=It's a Big Old Goofy World
TTITLE5=I Want to Be with You Always
TTITLE6=Daddy's Little Pumpkin
TTITLE7=Take a Look at My Heart
TTITLE8=Great Rain
TTITLE9=Way Back Then
TTITLE10=Unlonely
TTITLE11=You Got Gold
TTITLE12=Everything Is Cool
TTITLE13=Jesus the Missing Years
EXTD=YEAR: 1991
EXTT0=
EXTT1=
EXTT2=
EXTT3=
EXTT4=
EXTT5=
EXTT6=
EXTT7=
EXTT8=
EXTT9=
EXTT10=
EXTT11=
EXTT12=
EXTT13=
PLAYORDER=
